# xmcd
#
# Track frame offsets:
#	150
#	16015
#	34647
#	52345
#	73495
#	101220
#	119240
#	139205
#	160610
#	180220
#	199597
#	213785
#	234997
#	245717
#
# Disc length: 3487 seconds
#
# Revision: 0
# Processed by: cddbd v1.4PL0 Copyright (c) Steve Scherf et al.
# Submitted via: dBpowerAMP V4.0
#
DISCID=c80d9d0e
DTITLE=Crossroads Band,The - Self-Titled
DYEAR=1900
DGENRE=
TTITLE0=The Train Kept A-Rollin'
TTITLE1=Night Creeper
TTITLE2=It Hurts Me Too
TTITLE3=Standing At The Crossroads
TTITLE4=It Takes A Lot To Laugh, It Takes A Train To Cry
TTITLE5=Nobody Happy With What They Got
TTITLE6=Down To The Station
TTITLE7=You Can't Live Long
TTITLE8=Three Hundred Pounds Of Joy
TTITLE9=Mammer Jammer
TTITLE10=Sweet Lovin' Mama
TTITLE11=Got To Find My Baby
TTITLE12=What Do You Want With Me?
TTITLE13=Don't Do It
EXTD=
EXTT0=
EXTT1=
EXTT2=
EXTT3=
EXTT4=
EXTT5=
EXTT6=
EXTT7=
EXTT8=
EXTT9=
EXTT10=
EXTT11=
EXTT12=
EXTT13=
PLAYORDER=
